<?xml version="1.0" encoding="UTF-8"?>
<svg id="Ebene_1" data-name="Ebene 1" xmlns="http://www.w3.org/2000/svg" version="1.1" viewBox="0 0 256 256">
  <defs>
    <style>
      .cls-1 {
        fill: #3f3d3d;
      }

      .cls-1, .cls-2 {
        stroke-width: 0px;
      }

      .cls-2 {
        fill: #fff;
      }
    </style>
  </defs>
  <rect class="cls-1" width="256" height="259.3"/>
  <path class="cls-2" d="M191.8,132.5c0,6.4,0,12.3-.2,17.7-.1,5.3-.5,10.2-1.1,14.7-.6,4.5-1.6,8.6-3,12.3-1.4,3.7-3.3,7.3-5.6,10.6-5.6,7.9-12.1,13.7-19.7,17.3-7.6,3.7-16.7,5.5-27.4,5.5h-56.4V54.4h56.4c10.7,0,19.8,1.8,27.4,5.5,7.6,3.7,14.2,9.4,19.7,17.3,2.3,3.4,4.2,6.9,5.6,10.6,1.4,3.7,2.4,7.8,3,12.3.6,4.5,1,9.4,1.1,14.7.1,5.3.2,11.2.2,17.7ZM161.3,132.5c0-6.1,0-11.4-.2-15.9-.1-4.5-.4-8.3-.9-11.4-.4-3.1-1.1-5.8-1.9-8-.8-2.2-1.9-4.2-3.4-5.9-5.1-6.4-12.7-9.7-22.8-9.7h-23.3v101.8h23.3c10.1,0,17.7-3.2,22.8-9.7,1.5-1.8,2.6-3.7,3.4-5.9.8-2.2,1.4-4.9,1.9-8,.4-3.1.7-6.9.9-11.4.1-4.5.2-9.8.2-15.9Z"/>
</svg>